<?xml version="1.0" encoding="UTF-8" standalone="no"?><svg xmlns="http://www.w3.org/2000/svg" xmlns:xlink="http://www.w3.org/1999/xlink" contentScriptType="application/ecmascript" contentStyleType="text/css" height="465px" preserveAspectRatio="none" style="width:708px;height:465px;" version="1.1" viewBox="0 0 708 465" width="708px" zoomAndPan="magnify"><defs><filter height="300%" id="f5nlgzd3mwdt7" width="300%" x="-1" y="-1"><feGaussianBlur result="blurOut" stdDeviation="2.0"/><feColorMatrix in="blurOut" result="blurOut2" type="matrix" values="0 0 0 0 0 0 0 0 0 0 0 0 0 0 0 0 0 0 .4 0"/><feOffset dx="4.0" dy="4.0" in="blurOut2" result="blurOut3"/><feBlend in="SourceGraphic" in2="blurOut3" mode="normal"/></filter></defs><g><text fill="#000000" font-family="sans-serif" font-size="18" lengthAdjust="spacingAndGlyphs" textLength="230" x="242.5" y="16.708">"Работа кондиционера"</text><ellipse cx="251" cy="38.9531" fill="#000000" filter="url(#f5nlgzd3mwdt7)" rx="10" ry="10" style="stroke: none; stroke-width: 1.0;"/><rect fill="#FEFECE" filter="url(#f5nlgzd3mwdt7)" height="50" rx="12.5" ry="12.5" style="stroke: #A80036; stroke-width: 1.5;" width="107" x="197.5" y="128.4531"/><line style="stroke: #A80036; stroke-width: 1.5;" x1="197.5" x2="304.5" y1="154.75" y2="154.75"/><text fill="#000000" font-family="sans-serif" font-size="14" lengthAdjust="spacingAndGlyphs" textLength="87" x="207.5" y="146.4482">Управление</text><ellipse cx="687" cy="153.4531" fill="none" filter="url(#f5nlgzd3mwdt7)" rx="10" ry="10" style="stroke: #000000; stroke-width: 1.0;"/><ellipse cx="687.5" cy="153.9531" fill="#000000" rx="6" ry="6" style="stroke: none; stroke-width: 1.0;"/><rect fill="#FEFECE" filter="url(#f5nlgzd3mwdt7)" height="50" rx="12.5" ry="12.5" style="stroke: #A80036; stroke-width: 1.5;" width="71" x="140.5" y="257.9531"/><line style="stroke: #A80036; stroke-width: 1.5;" x1="140.5" x2="211.5" y1="284.25" y2="284.25"/><text fill="#000000" font-family="sans-serif" font-size="14" lengthAdjust="spacingAndGlyphs" textLength="51" x="150.5" y="275.9482">Нагрев</text><rect fill="#FEFECE" filter="url(#f5nlgzd3mwdt7)" height="50" rx="12.5" ry="12.5" style="stroke: #A80036; stroke-width: 1.5;" width="114" x="269" y="257.9531"/><line style="stroke: #A80036; stroke-width: 1.5;" x1="269" x2="383" y1="284.25" y2="284.25"/><text fill="#000000" font-family="sans-serif" font-size="14" lengthAdjust="spacingAndGlyphs" textLength="94" x="279" y="275.9482">Охлаждение</text><rect fill="#FEFECE" filter="url(#f5nlgzd3mwdt7)" height="50" rx="12.5" ry="12.5" style="stroke: #A80036; stroke-width: 1.5;" width="98" x="6" y="128.4531"/><line style="stroke: #A80036; stroke-width: 1.5;" x1="6" x2="104" y1="154.75" y2="154.75"/><text fill="#000000" font-family="sans-serif" font-size="14" lengthAdjust="spacingAndGlyphs" textLength="78" x="16" y="146.4482">Ожидание</text><polygon fill="#FBFB77" filter="url(#f5nlgzd3mwdt7)" points="340,125.9531,340,181.3516,642,181.3516,642,135.9531,632,125.9531,340,125.9531" style="stroke: #A80036; stroke-width: 1.0;"/><polygon fill="#FBFB77" points="340,125.9531,340,149.4531,304.906,153.4531,340,157.4531,340,181.3516,642,181.3516,642,135.9531,632,125.9531,340,125.9531" style="stroke: #A80036; stroke-width: 1.0;"/><line style="stroke: #A80036; stroke-width: 1.0;" x1="632" x2="632" y1="125.9531" y2="135.9531"/><line style="stroke: #A80036; stroke-width: 1.0;" x1="642" x2="632" y1="135.9531" y2="135.9531"/><text fill="#000000" font-family="sans-serif" font-size="13" lengthAdjust="spacingAndGlyphs" textLength="277" x="346" y="143.02">Восстановление режима и температуры</text><text fill="#000000" font-family="sans-serif" font-size="13" lengthAdjust="spacingAndGlyphs" textLength="245" x="346" y="158.1528">Сохранение режима и температуры</text><text fill="#000000" font-family="sans-serif" font-size="13" lengthAdjust="spacingAndGlyphs" textLength="170" x="346" y="173.2856">Изменение температуры</text><!--link *start to Управление--><path d="M251,49.1591 C251,65.1311 251,98.6141 251,123.1451 " fill="none" id="*start-Управление" style="stroke: #A80036; stroke-width: 1.0;"/><polygon fill="#A80036" points="251,128.2351,255,119.2351,251,123.2351,247,119.2351,251,128.2351" style="stroke: #A80036; stroke-width: 1.0;"/><text fill="#000000" font-family="sans-serif" font-size="13" lengthAdjust="spacingAndGlyphs" textLength="112" x="252" y="92.02">Восстановление</text><!--link Управление to *end--><path d="M304.593,129.9921 C366.82,105.6801 472.616,73.3821 564,89.9531 C608.837,98.0831 621.801,101.1081 660,125.9531 C666.436,130.1391 672.527,136.0981 677.289,141.3991 " fill="none" id="Управление-*end" style="stroke: #A80036; stroke-width: 1.0;"/><polygon fill="#A80036" points="680.656,145.2841,677.7851,135.863,677.3816,141.5054,671.7392,141.102,680.656,145.2841" style="stroke: #A80036; stroke-width: 1.0;"/><text fill="#000000" font-family="sans-serif" font-size="13" lengthAdjust="spacingAndGlyphs" textLength="80" x="483" y="92.02">Сохранение</text><!--link Управление to Нагрев--><path d="M197.381,164.5251 C171.122,172.4511 141.82,186.4411 126,210.9531 C116.659,225.4262 125.616,241.1233 138.399,254.0688 " fill="none" id="Управление-Нагрев" style="stroke: #A80036; stroke-width: 1.0;"/><polygon fill="#A80036" points="142.093,257.6438,138.407,248.5107,138.4999,254.1668,132.8438,254.2597,142.093,257.6438" style="stroke: #A80036; stroke-width: 1.0;"/><text fill="#000000" font-family="sans-serif" font-size="13" lengthAdjust="spacingAndGlyphs" textLength="31" x="127" y="224.02">t &lt; T</text><!--link Управление to Нагрев--><path d="M220.528,182.7781 C212.692,191.2501 204.836,200.9611 199,210.9531 C190.505,225.4981 184.707,243.5799 181.057,257.8556 " fill="none" id="Управление-Нагрев" style="stroke: #A80036; stroke-width: 1.0;"/><polygon fill="#A80036" points="224.364,178.7221,215.2738,182.5126,220.9284,182.3549,221.0861,188.0095,224.364,178.7221" style="stroke: #A80036; stroke-width: 1.0;"/><text fill="#000000" font-family="sans-serif" font-size="13" lengthAdjust="spacingAndGlyphs" textLength="47" x="200" y="224.02">w &gt; W1</text><path d="M250.1667,215.1693 L250.1667,216.2526 L251.25,216.2526 L251.25,216.2862 C249.4116,216.5473 248,218.1354 248,220.0443 C248,222.134 249.7019,223.8359 251.7917,223.8359 C253.8814,223.8359 255.5833,222.134 255.5833,220.0443 C255.5833,219.5568 255.4902,219.0974 255.3461,218.6901 L254.3299,219.0628 C254.4458,219.3921 254.4989,219.7084 254.4989,220.0443 C254.4989,221.5512 253.2975,222.7526 251.7906,222.7526 C250.2837,222.7526 249.0823,221.5512 249.0823,220.0443 C249.0823,218.5374 250.2837,217.3359 251.7906,217.3359 C252.1134,217.3359 252.4243,217.3912 252.7385,217.5049 L253.1112,216.4888 C252.8718,216.401 252.6009,216.3599 252.3323,216.3198 L252.3323,216.2515 L253.4156,216.2515 L253.4156,215.1682 L250.1656,215.1682 M255.5823,216.3869 C251.601,219.4203 251.601,219.4203 251.3843,219.6369 C251.1677,219.8536 251.1677,220.1992 251.3843,220.4159 C251.601,220.6325 251.9466,220.6325 252.1633,220.4159 C252.3799,220.21 255.5823,216.3869 255.5823,216.3869 " fill="#000000" style="stroke: ; stroke-width: 0.0; stroke-dasharray: ;"/><!--link Управление to Охлаждение--><path d="M265.283,178.7351 C277.795,200.0041 295.99,230.9365 309.198,253.3895 " fill="none" id="Управление-Охлаждение" style="stroke: #A80036; stroke-width: 1.0;"/><polygon fill="#A80036" points="311.77,257.7616,310.6548,247.9761,309.235,253.4519,303.7592,252.0321,311.77,257.7616" style="stroke: #A80036; stroke-width: 1.0;"/><text fill="#000000" font-family="sans-serif" font-size="13" lengthAdjust="spacingAndGlyphs" textLength="31" x="294" y="224.02">t &gt; T</text><!--link Управление to Охлаждение--><path d="M307.243,181.6271 C317.994,189.5261 327.812,199.2551 334,210.9531 C341.54,225.2073 339.359,243.2936 335.386,257.6443 " fill="none" id="Управление-Охлаждение" style="stroke: #A80036; stroke-width: 1.0;"/><polygon fill="#A80036" points="302.919,178.5781,307.9686,187.034,307.0051,181.4598,312.5793,180.4963,302.919,178.5781" style="stroke: #A80036; stroke-width: 1.0;"/><text fill="#000000" font-family="sans-serif" font-size="13" lengthAdjust="spacingAndGlyphs" textLength="47" x="340" y="224.02">w &gt; W2</text><path d="M390.1667,215.1693 L390.1667,216.2526 L391.25,216.2526 L391.25,216.2862 C389.4116,216.5473 388,218.1354 388,220.0443 C388,222.134 389.7019,223.8359 391.7917,223.8359 C393.8814,223.8359 395.5833,222.134 395.5833,220.0443 C395.5833,219.5568 395.4902,219.0974 395.3461,218.6901 L394.3299,219.0628 C394.4458,219.3921 394.4989,219.7084 394.4989,220.0443 C394.4989,221.5512 393.2975,222.7526 391.7906,222.7526 C390.2837,222.7526 389.0823,221.5512 389.0823,220.0443 C389.0823,218.5374 390.2837,217.3359 391.7906,217.3359 C392.1134,217.3359 392.4243,217.3912 392.7385,217.5049 L393.1112,216.4888 C392.8718,216.401 392.6009,216.3599 392.3323,216.3198 L392.3323,216.2515 L393.4156,216.2515 L393.4156,215.1682 L390.1656,215.1682 M395.5823,216.3869 C391.601,219.4203 391.601,219.4203 391.3843,219.6369 C391.1677,219.8536 391.1677,220.1992 391.3843,220.4159 C391.601,220.6325 391.9466,220.6325 392.1633,220.4159 C392.3799,220.21 395.5823,216.3869 395.5823,216.3869 " fill="#000000" style="stroke: ; stroke-width: 0.0; stroke-dasharray: ;"/><!--link Ожидание to Управление--><path d="M109.197,169.8871 C115.734,171.3521 122.358,172.6021 128.75,173.4531 C148.134,176.0351 153.347,175.8931 172.75,173.4531 C180.819,172.4381 189.248,170.8561 197.461,169.0171 " fill="none" id="Ожидание-Управление" style="stroke: #A80036; stroke-width: 1.0;"/><polygon fill="#A80036" points="104.2207,168.7281,112.0787,174.6654,109.0904,169.8623,113.8935,166.874,104.2207,168.7281" style="stroke: #A80036; stroke-width: 1.0;"/><text fill="#000000" font-family="sans-serif" font-size="13" lengthAdjust="spacingAndGlyphs" textLength="42" x="129.75" y="169.52">t == T</text><!--link Ожидание to Управление--><path d="M104.2061,153.4531 C130.894,153.4531 164.064,153.4531 192.117,153.4531 " fill="none" id="Ожидание-Управление" style="stroke: #A80036; stroke-width: 1.0;"/><polygon fill="#A80036" points="197.293,153.4531,188.293,149.4531,192.293,153.4531,188.293,157.4531,197.293,153.4531" style="stroke: #A80036; stroke-width: 1.0;"/><text fill="#000000" font-family="sans-serif" font-size="13" lengthAdjust="spacingAndGlyphs" textLength="47" x="122.25" y="146.52">w &gt; W3</text><path d="M172.4167,137.6693 L172.4167,138.7526 L173.5,138.7526 L173.5,138.7862 C171.6616,139.0473 170.25,140.6354 170.25,142.5443 C170.25,144.634 171.9519,146.3359 174.0417,146.3359 C176.1314,146.3359 177.8333,144.634 177.8333,142.5443 C177.8333,142.0568 177.7402,141.5974 177.5961,141.1901 L176.5799,141.5628 C176.6958,141.8921 176.7489,142.2084 176.7489,142.5443 C176.7489,144.0512 175.5475,145.2526 174.0406,145.2526 C172.5337,145.2526 171.3323,144.0512 171.3323,142.5443 C171.3323,141.0374 172.5337,139.8359 174.0406,139.8359 C174.3634,139.8359 174.6743,139.8912 174.9885,140.0049 L175.3612,138.9888 C175.1218,138.901 174.8509,138.8599 174.5823,138.8198 L174.5823,138.7515 L175.6656,138.7515 L175.6656,137.6682 L172.4156,137.6682 M177.8323,138.8869 C173.851,141.9203 173.851,141.9203 173.6343,142.1369 C173.4177,142.3536 173.4177,142.6992 173.6343,142.9159 C173.851,143.1325 174.1966,143.1325 174.4133,142.9159 C174.6299,142.71 177.8323,138.8869 177.8323,138.8869 " fill="#000000" style="stroke: ; stroke-width: 0.0; stroke-dasharray: ;"/><rect fill="#DDDDDD" height="128.0781" rx="5" ry="5" style="stroke: #000000; stroke-width: 1.0;" width="303" x="205.5" y="325.9531"/><text fill="#000000" font-family="sans-serif" font-size="14" font-weight="bold" lengthAdjust="spacingAndGlyphs" textLength="0" x="231.5" y="345.9482"/><text fill="#000000" font-family="sans-serif" font-size="14" font-weight="bold" lengthAdjust="spacingAndGlyphs" textLength="80" x="250.5" y="345.9482">Описание</text><text fill="#000000" font-family="sans-serif" font-size="14" lengthAdjust="spacingAndGlyphs" textLength="5" x="215.5" y="362.2451">t</text><text fill="#000000" font-family="sans-serif" font-size="14" lengthAdjust="spacingAndGlyphs" textLength="249" x="249.5" y="362.2451">Температура окружающей среды</text><text fill="#000000" font-family="sans-serif" font-size="14" lengthAdjust="spacingAndGlyphs" textLength="9" x="215.5" y="378.542">T</text><text fill="#000000" font-family="sans-serif" font-size="14" lengthAdjust="spacingAndGlyphs" textLength="176" x="249.5" y="378.542">Граничная температура</text><text fill="#000000" font-family="sans-serif" font-size="14" lengthAdjust="spacingAndGlyphs" textLength="11" x="215.5" y="394.8389">w</text><text fill="#000000" font-family="sans-serif" font-size="14" lengthAdjust="spacingAndGlyphs" textLength="204" x="249.5" y="394.8389">Текущее значение таймера</text><text fill="#000000" font-family="sans-serif" font-size="14" lengthAdjust="spacingAndGlyphs" textLength="22" x="215.5" y="411.1357">W1</text><text fill="#000000" font-family="sans-serif" font-size="14" lengthAdjust="spacingAndGlyphs" textLength="122" x="249.5" y="411.1357">Таймаут нагрева</text><text fill="#000000" font-family="sans-serif" font-size="14" lengthAdjust="spacingAndGlyphs" textLength="22" x="215.5" y="427.4326">W2</text><text fill="#000000" font-family="sans-serif" font-size="14" lengthAdjust="spacingAndGlyphs" textLength="155" x="249.5" y="427.4326">Таймаут охлаждения</text><text fill="#000000" font-family="sans-serif" font-size="14" lengthAdjust="spacingAndGlyphs" textLength="22" x="215.5" y="443.7295">W3</text><text fill="#000000" font-family="sans-serif" font-size="14" lengthAdjust="spacingAndGlyphs" textLength="139" x="249.5" y="443.7295">Таймаут ожидания</text><line style="stroke: #000000; stroke-width: 1.0;" x1="211.5" x2="502.5" y1="332.9531" y2="332.9531"/><line style="stroke: #000000; stroke-width: 1.0;" x1="211.5" x2="502.5" y1="349.25" y2="349.25"/><line style="stroke: #000000; stroke-width: 1.0;" x1="211.5" x2="502.5" y1="365.5469" y2="365.5469"/><line style="stroke: #000000; stroke-width: 1.0;" x1="211.5" x2="502.5" y1="381.8438" y2="381.8438"/><line style="stroke: #000000; stroke-width: 1.0;" x1="211.5" x2="502.5" y1="398.1406" y2="398.1406"/><line style="stroke: #000000; stroke-width: 1.0;" x1="211.5" x2="502.5" y1="414.4375" y2="414.4375"/><line style="stroke: #000000; stroke-width: 1.0;" x1="211.5" x2="502.5" y1="430.7344" y2="430.7344"/><line style="stroke: #000000; stroke-width: 1.0;" x1="211.5" x2="502.5" y1="447.0313" y2="447.0313"/><line style="stroke: #000000; stroke-width: 1.0;" x1="211.5" x2="211.5" y1="332.9531" y2="447.0313"/><line style="stroke: #000000; stroke-width: 1.0;" x1="245.5" x2="245.5" y1="332.9531" y2="447.0313"/><line style="stroke: #000000; stroke-width: 1.0;" x1="502.5" x2="502.5" y1="332.9531" y2="447.0313"/><!--
@startuml
title "Работа кондиционера"

legend
|=    |= Описание                    |
| t   | Температура окружающей среды |
| T   | Граничная температура        |
| w   | Текущее значение таймера     |
| W1  | Таймаут нагрева              |
| W2  | Таймаут охлаждения           |
| W3  | Таймаут ожидания             |
end legend

[*] -down-> Управление: Восстановление
Управление -> [*]: Сохранение
Управление -down-> Нагрев: t < T
Управление -down-> Охлаждение: t > T
Нагрев -up-> Управление: w > W1<&timer>
Охлаждение -up-> Управление: w > W2<&timer>
Управление -left-> Ожидание: t == T
Ожидание -right-> Управление: w > W3<&timer>

note right of Управление : Восстановление режима и температуры \nСохранение режима и температуры \nИзменение температуры
@enduml

PlantUML version 1.2017.16beta5(Unknown compile time)
(GPL source distribution)
Java Runtime: Java(TM) SE Runtime Environment
JVM: Java HotSpot(TM) 64-Bit Server VM
Java Version: 1.7.0_25-b15
Operating System: Linux
Default Encoding: UTF-8
Language: en
Country: US
--></g></svg>